<?xml version="1.0" encoding="UTF-8" standalone="no"?>
<!DOCTYPE svg PUBLIC "-//W3C//DTD SVG 1.1//EN"
 "http://www.w3.org/Graphics/SVG/1.1/DTD/svg11.dtd">
<!-- Generated by graphviz version 2.38.0 (20140413.2041)
 -->
<!-- Title: G Pages: 1 -->
<svg width="490pt" height="612pt"
 viewBox="0.00 0.00 489.77 612.00" xmlns="http://www.w3.org/2000/svg" xmlns:xlink="http://www.w3.org/1999/xlink">
<g id="graph0" class="graph" transform="scale(1 1) rotate(0) translate(4 608)">
<title>G</title>
<polygon fill="white" stroke="none" points="-4,4 -4,-608 485.773,-608 485.773,4 -4,4"/>
<g id="clust1" class="cluster"><title>cluster_Global</title>
<path fill="none" stroke="gray" d="M366.773,-8C366.773,-8 461.773,-8 461.773,-8 467.773,-8 473.773,-14 473.773,-20 473.773,-20 473.773,-584 473.773,-584 473.773,-590 467.773,-596 461.773,-596 461.773,-596 366.773,-596 366.773,-596 360.773,-596 354.773,-590 354.773,-584 354.773,-584 354.773,-20 354.773,-20 354.773,-14 360.773,-8 366.773,-8"/>
<text text-anchor="middle" x="414.273" y="-583.2" font-family="Times,serif" font-size="11.00" fill="gray">Global</text>
</g>
<g id="clust2" class="cluster"><title>cluster_\Phil</title>
<path fill="none" stroke="gray" d="M374.773,-60C374.773,-60 453.773,-60 453.773,-60 459.773,-60 465.773,-66 465.773,-72 465.773,-72 465.773,-556 465.773,-556 465.773,-562 459.773,-568 453.773,-568 453.773,-568 374.773,-568 374.773,-568 368.773,-568 362.773,-562 362.773,-556 362.773,-556 362.773,-72 362.773,-72 362.773,-66 368.773,-60 374.773,-60"/>
<text text-anchor="middle" x="414.273" y="-555.2" font-family="Times,serif" font-size="11.00" fill="gray">Phil</text>
</g>
<g id="clust3" class="cluster"><title>cluster_\Phil\App</title>
<path fill="none" stroke="gray" d="M391.273,-468C391.273,-468 437.273,-468 437.273,-468 443.273,-468 449.273,-474 449.273,-480 449.273,-480 449.273,-528 449.273,-528 449.273,-534 443.273,-540 437.273,-540 437.273,-540 391.273,-540 391.273,-540 385.273,-540 379.273,-534 379.273,-528 379.273,-528 379.273,-480 379.273,-480 379.273,-474 385.273,-468 391.273,-468"/>
<text text-anchor="middle" x="414.273" y="-527.2" font-family="Times,serif" font-size="11.00" fill="gray">App</text>
</g>
<g id="clust4" class="cluster"><title>cluster_\Phil\Content</title>
<path fill="none" stroke="gray" d="M386.273,-228C386.273,-228 442.273,-228 442.273,-228 448.273,-228 454.273,-234 454.273,-240 454.273,-240 454.273,-288 454.273,-288 454.273,-294 448.273,-300 442.273,-300 442.273,-300 386.273,-300 386.273,-300 380.273,-300 374.273,-294 374.273,-288 374.273,-288 374.273,-240 374.273,-240 374.273,-234 380.273,-228 386.273,-228"/>
<text text-anchor="middle" x="414.273" y="-287.2" font-family="Times,serif" font-size="11.00" fill="gray">Content</text>
</g>
<g id="clust5" class="cluster"><title>cluster_\Phil\Calendar</title>
<path fill="none" stroke="gray" d="M382.773,-148C382.773,-148 445.773,-148 445.773,-148 451.773,-148 457.773,-154 457.773,-160 457.773,-160 457.773,-208 457.773,-208 457.773,-214 451.773,-220 445.773,-220 445.773,-220 382.773,-220 382.773,-220 376.773,-220 370.773,-214 370.773,-208 370.773,-208 370.773,-160 370.773,-160 370.773,-154 376.773,-148 382.773,-148"/>
<text text-anchor="middle" x="414.273" y="-207.2" font-family="Times,serif" font-size="11.00" fill="gray">Calendar</text>
</g>
<g id="clust6" class="cluster"><title>cluster_\Phil\Login</title>
<path fill="none" stroke="gray" d="M391.273,-388C391.273,-388 437.273,-388 437.273,-388 443.273,-388 449.273,-394 449.273,-400 449.273,-400 449.273,-448 449.273,-448 449.273,-454 443.273,-460 437.273,-460 437.273,-460 391.273,-460 391.273,-460 385.273,-460 379.273,-454 379.273,-448 379.273,-448 379.273,-400 379.273,-400 379.273,-394 385.273,-388 391.273,-388"/>
<text text-anchor="middle" x="414.273" y="-447.2" font-family="Times,serif" font-size="11.00" fill="gray">Login</text>
</g>
<g id="clust7" class="cluster"><title>cluster_\Phil\Navbar</title>
<path fill="none" stroke="gray" d="M389.773,-68C389.773,-68 438.773,-68 438.773,-68 444.773,-68 450.773,-74 450.773,-80 450.773,-80 450.773,-128 450.773,-128 450.773,-134 444.773,-140 438.773,-140 438.773,-140 389.773,-140 389.773,-140 383.773,-140 377.773,-134 377.773,-128 377.773,-128 377.773,-80 377.773,-80 377.773,-74 383.773,-68 389.773,-68"/>
<text text-anchor="middle" x="414.273" y="-127.2" font-family="Times,serif" font-size="11.00" fill="gray">Navbar</text>
</g>
<g id="clust8" class="cluster"><title>cluster_\Phil\Session</title>
<path fill="none" stroke="gray" d="M386.273,-308C386.273,-308 442.273,-308 442.273,-308 448.273,-308 454.273,-314 454.273,-320 454.273,-320 454.273,-368 454.273,-368 454.273,-374 448.273,-380 442.273,-380 442.273,-380 386.273,-380 386.273,-380 380.273,-380 374.273,-374 374.273,-368 374.273,-368 374.273,-320 374.273,-320 374.273,-314 380.273,-308 386.273,-308"/>
<text text-anchor="middle" x="414.273" y="-367.2" font-family="Times,serif" font-size="11.00" fill="gray">Session</text>
</g>
<!-- \\Phil\\App\\App -->
<g id="node1" class="node"><title>\\Phil\\App\\App</title>
<polygon fill="none" stroke="black" points="441.273,-512 387.273,-512 387.273,-476 441.273,-476 441.273,-512"/>
<text text-anchor="middle" x="414.273" y="-491.2" font-family="Courier,monospace" font-size="11.00">App</text>
</g>
<!-- \\Phil\\Content\\Content -->
<g id="node2" class="node"><title>\\Phil\\Content\\Content</title>
<polygon fill="none" stroke="black" points="446.273,-272 382.273,-272 382.273,-236 446.273,-236 446.273,-272"/>
<text text-anchor="middle" x="414.273" y="-251.2" font-family="Courier,monospace" font-size="11.00">Content</text>
</g>
<!-- \\Anax\\Common\\ConfigureInterface -->
<g id="node8" class="node"><title>\\Anax\\Common\\ConfigureInterface</title>
<ellipse fill="none" stroke="black" cx="153.386" cy="-254" rx="139.175" ry="18"/>
<text text-anchor="middle" x="153.386" y="-250.3" font-family="Times,serif" font-size="14.00" fill="gray">\Anax\Common\ConfigureInterface</text>
</g>
<!-- \\Phil\\Content\\Content&#45;&gt;\\Anax\\Common\\ConfigureInterface -->
<g id="edge1" class="edge"><title>\\Phil\\Content\\Content&#45;&gt;\\Anax\\Common\\ConfigureInterface</title>
<path fill="none" stroke="black" stroke-dasharray="1,5" d="M382.045,-254C361.444,-254 332.792,-254 302.75,-254"/>
<polygon fill="none" stroke="black" points="302.519,-250.5 292.519,-254 302.519,-257.5 302.519,-250.5"/>
</g>
<!-- \\Phil\\Calendar\\Calendar -->
<g id="node3" class="node"><title>\\Phil\\Calendar\\Calendar</title>
<polygon fill="none" stroke="black" points="449.773,-192 378.773,-192 378.773,-156 449.773,-156 449.773,-192"/>
<text text-anchor="middle" x="414.273" y="-171.2" font-family="Courier,monospace" font-size="11.00">Calendar</text>
</g>
<!-- \\Phil\\Calendar\\Calendar&#45;&gt;\\Anax\\Common\\ConfigureInterface -->
<g id="edge2" class="edge"><title>\\Phil\\Calendar\\Calendar&#45;&gt;\\Anax\\Common\\ConfigureInterface</title>
<path fill="none" stroke="black" stroke-dasharray="1,5" d="M378.627,-184.706C337.595,-197.386 268.43,-218.759 217.742,-234.422"/>
<polygon fill="none" stroke="black" points="216.705,-231.079 208.184,-237.376 218.772,-237.767 216.705,-231.079"/>
</g>
<!-- \\Phil\\Login\\Login -->
<g id="node4" class="node"><title>\\Phil\\Login\\Login</title>
<polygon fill="none" stroke="black" points="441.273,-432 387.273,-432 387.273,-396 441.273,-396 441.273,-432"/>
<text text-anchor="middle" x="414.273" y="-411.2" font-family="Courier,monospace" font-size="11.00">Login</text>
</g>
<!-- \\Phil\\Login\\Login&#45;&gt;\\Anax\\Common\\ConfigureInterface -->
<g id="edge3" class="edge"><title>\\Phil\\Login\\Login&#45;&gt;\\Anax\\Common\\ConfigureInterface</title>
<path fill="none" stroke="black" stroke-dasharray="1,5" d="M387.05,-401.267C376.85,-396.129 365.145,-390.003 354.773,-384 294.712,-349.238 227.546,-304.373 188.229,-277.467"/>
<polygon fill="none" stroke="black" points="190.027,-274.456 179.802,-271.683 186.066,-280.228 190.027,-274.456"/>
</g>
<!-- \\Phil\\Navbar\\Navbar -->
<g id="node5" class="node"><title>\\Phil\\Navbar\\Navbar</title>
<polygon fill="none" stroke="black" points="442.773,-112 385.773,-112 385.773,-76 442.773,-76 442.773,-112"/>
<text text-anchor="middle" x="414.273" y="-91.2" font-family="Courier,monospace" font-size="11.00">Navbar</text>
</g>
<!-- \\Phil\\Navbar\\Navbar&#45;&gt;\\Anax\\Common\\ConfigureInterface -->
<g id="edge5" class="edge"><title>\\Phil\\Navbar\\Navbar&#45;&gt;\\Anax\\Common\\ConfigureInterface</title>
<path fill="none" stroke="black" stroke-dasharray="1,5" d="M385.567,-111.123C338.834,-140.006 244.306,-198.427 191.755,-230.905"/>
<polygon fill="none" stroke="black" points="189.74,-228.036 183.073,-236.271 193.42,-233.991 189.74,-228.036"/>
</g>
<!-- \\Anax\\Common\\AppInjectableInterface -->
<g id="node9" class="node"><title>\\Anax\\Common\\AppInjectableInterface</title>
<ellipse fill="none" stroke="black" cx="153.386" cy="-94" rx="153.273" ry="18"/>
<text text-anchor="middle" x="153.386" y="-90.3" font-family="Times,serif" font-size="14.00" fill="gray">\Anax\Common\AppInjectableInterface</text>
</g>
<!-- \\Phil\\Navbar\\Navbar&#45;&gt;\\Anax\\Common\\AppInjectableInterface -->
<g id="edge4" class="edge"><title>\\Phil\\Navbar\\Navbar&#45;&gt;\\Anax\\Common\\AppInjectableInterface</title>
<path fill="none" stroke="black" stroke-dasharray="1,5" d="M385.567,-94C367.929,-94 343.481,-94 317.052,-94"/>
<polygon fill="none" stroke="black" points="316.836,-90.5001 306.836,-94 316.835,-97.5001 316.836,-90.5001"/>
</g>
<!-- \\Phil\\Session\\Session -->
<g id="node6" class="node"><title>\\Phil\\Session\\Session</title>
<polygon fill="none" stroke="black" points="446.273,-352 382.273,-352 382.273,-316 446.273,-316 446.273,-352"/>
<text text-anchor="middle" x="414.273" y="-331.2" font-family="Courier,monospace" font-size="11.00">Session</text>
</g>
<!-- \\Phil\\Session\\Session&#45;&gt;\\Anax\\Common\\ConfigureInterface -->
<g id="edge6" class="edge"><title>\\Phil\\Session\\Session&#45;&gt;\\Anax\\Common\\ConfigureInterface</title>
<path fill="none" stroke="black" stroke-dasharray="1,5" d="M382.045,-324.35C341.616,-311.857 270.177,-289.781 218.082,-273.683"/>
<polygon fill="none" stroke="black" points="218.851,-270.257 208.264,-270.649 216.785,-276.945 218.851,-270.257"/>
</g>
<!-- \\Connect -->
<g id="node7" class="node"><title>\\Connect</title>
<polygon fill="none" stroke="black" points="446.273,-52 382.273,-52 382.273,-16 446.273,-16 446.273,-52"/>
<text text-anchor="middle" x="414.273" y="-31.2" font-family="Courier,monospace" font-size="11.00">Connect</text>
</g>
</g>
</svg>
